<?xml version="1.0" encoding="utf-8"?>
<!-- Generator: Adobe Illustrator 24.0.3, SVG Export Plug-In . SVG Version: 6.00 Build 0)  -->
<svg version="1.1" id="Layer_1" xmlns="http://www.w3.org/2000/svg" xmlns:xlink="http://www.w3.org/1999/xlink" x="0px" y="0px"
	 viewBox="0 0 512 512" style="enable-background:new 0 0 512 512;" xml:space="preserve">
<style type="text/css">
	.st0{fill:url(#SVGID_1_);}
	.st1{fill:url(#SVGID_2_);}
</style>
<g>
	<g>
		<g>
			<linearGradient id="SVGID_1_" gradientUnits="userSpaceOnUse" x1="256" y1="0" x2="256" y2="512">
				<stop  offset="0" style="stop-color:#FD02DD"/>
				<stop  offset="8.559702e-02" style="stop-color:#F80CDE"/>
				<stop  offset="0.2304" style="stop-color:#EA26E2"/>
				<stop  offset="0.4168" style="stop-color:#D252E8"/>
				<stop  offset="0.6375" style="stop-color:#B38EF0"/>
				<stop  offset="0.8843" style="stop-color:#8AD9FA"/>
				<stop  offset="1" style="stop-color:#76FFFF"/>
			</linearGradient>
			<path class="st0" d="M256,0C114.6,0,0,114.6,0,256s114.6,256,256,256s256-114.6,256-256S397.4,0,256,0z M256,469.3
				c-117.8,0-213.3-95.5-213.3-213.3S138.2,42.7,256,42.7S469.3,138.2,469.3,256S373.8,469.3,256,469.3z"/>
			<linearGradient id="SVGID_2_" gradientUnits="userSpaceOnUse" x1="256.003" y1="106.6695" x2="256.003" y2="405.333">
				<stop  offset="0" style="stop-color:#FD02DD"/>
				<stop  offset="8.559702e-02" style="stop-color:#F80CDE"/>
				<stop  offset="0.2304" style="stop-color:#EA26E2"/>
				<stop  offset="0.4168" style="stop-color:#D252E8"/>
				<stop  offset="0.6375" style="stop-color:#B38EF0"/>
				<stop  offset="0.8843" style="stop-color:#8AD9FA"/>
				<stop  offset="1" style="stop-color:#76FFFF"/>
			</linearGradient>
			<path class="st1" d="M271.1,112.9C271.1,112.9,271.1,112.9,271.1,112.9c-0.5-0.5-1-1-1.6-1.4c-0.2-0.2-0.5-0.4-0.8-0.6
				c-0.3-0.2-0.6-0.5-0.9-0.7c-0.3-0.2-0.6-0.4-0.9-0.6c-0.3-0.2-0.6-0.3-0.9-0.5c-0.3-0.2-0.6-0.3-1-0.5c-0.3-0.1-0.6-0.3-0.9-0.4
				c-0.3-0.1-0.6-0.2-1-0.3c-0.3-0.1-0.7-0.2-1-0.4c-0.3-0.1-0.6-0.2-1-0.2c-0.4-0.1-0.7-0.2-1.1-0.3c-0.4-0.1-0.8-0.1-1.1-0.2
				c-0.3,0-0.6-0.1-0.9-0.1c-1.4-0.1-2.8-0.1-4.2,0c-0.3,0-0.6,0.1-0.9,0.1c-0.4,0.1-0.8,0.1-1.1,0.2c-0.4,0.1-0.7,0.2-1.1,0.3
				c-0.3,0.1-0.6,0.2-1,0.2c-0.3,0.1-0.7,0.2-1,0.4c-0.3,0.1-0.6,0.2-1,0.3c-0.3,0.1-0.6,0.3-0.9,0.4c-0.3,0.2-0.7,0.3-1,0.5
				c-0.3,0.2-0.6,0.3-0.9,0.5c-0.3,0.2-0.6,0.4-0.9,0.6c-0.3,0.2-0.6,0.4-0.9,0.7c-0.3,0.2-0.5,0.4-0.8,0.6
				c-0.5,0.4-1.1,0.9-1.5,1.4c0,0,0,0,0,0l-85.3,85.3c-8.3,8.3-8.3,21.8,0,30.2s21.8,8.3,30.2,0l48.9-48.9V384
				c0,11.8,9.6,21.3,21.3,21.3s21.3-9.6,21.3-21.3V179.5l48.9,48.9c8.3,8.3,21.8,8.3,30.2,0c8.3-8.3,8.3-21.8,0-30.2L271.1,112.9z"
				/>
		</g>
	</g>
</g>
</svg>
