<svg xmlns="http://www.w3.org/2000/svg" viewBox="0 0 512 512"><linearGradient id="a" gradientUnits="userSpaceOnUse" x1="256" y1="0" x2="256" y2="512"><stop offset="0" stop-color="#fd02dd"/><stop offset=".086" stop-color="#f80cde"/><stop offset=".23" stop-color="#ea26e2"/><stop offset=".417" stop-color="#d252e8"/><stop offset=".637" stop-color="#b38ef0"/><stop offset=".884" stop-color="#8ad9fa"/><stop offset="1" stop-color="#76ffff"/></linearGradient><path d="M256 0C114.6 0 0 114.6 0 256s114.6 256 256 256 256-114.6 256-256S397.4 0 256 0zm0 469.3c-117.8 0-213.3-95.5-213.3-213.3S138.2 42.7 256 42.7 469.3 138.2 469.3 256 373.8 469.3 256 469.3z" fill="url(#a)"/><linearGradient id="b" gradientUnits="userSpaceOnUse" x1="256.003" y1="106.669" x2="256.003" y2="405.333"><stop offset="0" stop-color="#fd02dd"/><stop offset=".086" stop-color="#f80cde"/><stop offset=".23" stop-color="#ea26e2"/><stop offset=".417" stop-color="#d252e8"/><stop offset=".637" stop-color="#b38ef0"/><stop offset=".884" stop-color="#8ad9fa"/><stop offset="1" stop-color="#76ffff"/></linearGradient><path d="M271.1 112.9c-.5-.5-1-1-1.6-1.4-.2-.2-.5-.4-.8-.6-.3-.2-.6-.5-.9-.7l-.9-.6c-.3-.2-.6-.3-.9-.5-.3-.2-.6-.3-1-.5-.3-.1-.6-.3-.9-.4-.3-.1-.6-.2-1-.3-.3-.1-.7-.2-1-.4-.3-.1-.6-.2-1-.2-.4-.1-.7-.2-1.1-.3-.4-.1-.8-.1-1.1-.2-.3 0-.6-.1-.9-.1-1.4-.1-2.8-.1-4.2 0-.3 0-.6.1-.9.1-.4.1-.8.1-1.1.2-.4.1-.7.2-1.1.3-.3.1-.6.2-1 .2-.3.1-.7.2-1 .4-.3.1-.6.2-1 .3-.3.1-.6.3-.9.4-.3.2-.7.3-1 .5-.3.2-.6.3-.9.5l-.9.6c-.3.2-.6.4-.9.7-.3.2-.5.4-.8.6-.5.4-1.1.9-1.5 1.4l-85.3 85.3c-8.3 8.3-8.3 21.8 0 30.2s21.8 8.3 30.2 0l48.9-48.9V384c0 11.8 9.6 21.3 21.3 21.3s21.3-9.6 21.3-21.3V179.5l48.9 48.9c8.3 8.3 21.8 8.3 30.2 0 8.3-8.3 8.3-21.8 0-30.2l-85.2-85.3z" fill="url(#b)"/></svg>